<svg preserveAspectRatio="none" width="100%" height="100%" overflow="visible" style="display: block;" viewBox="0 0 22 22" fill="none" xmlns="http://www.w3.org/2000/svg">
<g id="Vector">
<path d="M15 2.5C15 1.67157 14.3284 1 13.5 1C12.6716 1 12 1.67157 12 2.5V7.5C12 8.32843 12.6716 9 13.5 9C14.3284 9 15 8.32843 15 7.5V2.5Z" stroke="var(--stroke-0, #079DF0)" stroke-width="2" stroke-linecap="round" stroke-linejoin="round"/>
<path d="M18 7.5V9H19.5C19.7967 9 20.0867 8.91203 20.3334 8.74721C20.58 8.58238 20.7723 8.34812 20.8858 8.07403C20.9994 7.79994 21.0291 7.49834 20.9712 7.20737C20.9133 6.91639 20.7704 6.64912 20.5607 6.43934C20.3509 6.22956 20.0836 6.0867 19.7926 6.02882C19.5017 5.97095 19.2001 6.00065 18.926 6.11418C18.6519 6.22771 18.4176 6.41997 18.2528 6.66665C18.088 6.91332 18 7.20333 18 7.5Z" stroke="var(--stroke-0, #079DF0)" stroke-width="2" stroke-linecap="round" stroke-linejoin="round"/>
<path d="M10 14.5C10 13.6716 9.32843 13 8.5 13C7.67157 13 7 13.6716 7 14.5V19.5C7 20.3284 7.67157 21 8.5 21C9.32843 21 10 20.3284 10 19.5V14.5Z" stroke="var(--stroke-0, #079DF0)" stroke-width="2" stroke-linecap="round" stroke-linejoin="round"/>
<path d="M4 14.5V13H2.5C2.20333 13 1.91332 13.088 1.66665 13.2528C1.41997 13.4176 1.22771 13.6519 1.11418 13.926C1.00065 14.2001 0.970945 14.5017 1.02882 14.7926C1.0867 15.0836 1.22956 15.3509 1.43934 15.5607C1.64912 15.7704 1.91639 15.9133 2.20737 15.9712C2.49834 16.0291 2.79994 15.9994 3.07403 15.8858C3.34812 15.7723 3.58238 15.58 3.74721 15.3334C3.91203 15.0867 4 14.7967 4 14.5Z" stroke="var(--stroke-0, #079DF0)" stroke-width="2" stroke-linecap="round" stroke-linejoin="round"/>
<path d="M19.5 12H14.5C13.6716 12 13 12.6716 13 13.5C13 14.3284 13.6716 15 14.5 15H19.5C20.3284 15 21 14.3284 21 13.5C21 12.6716 20.3284 12 19.5 12Z" stroke="var(--stroke-0, #079DF0)" stroke-width="2" stroke-linecap="round" stroke-linejoin="round"/>
<path d="M14.5 18H13V19.5C13 19.7967 13.088 20.0867 13.2528 20.3334C13.4176 20.58 13.6519 20.7723 13.926 20.8858C14.2001 20.9994 14.5017 21.0291 14.7926 20.9712C15.0836 20.9133 15.3509 20.7704 15.5607 20.5607C15.7704 20.3509 15.9133 20.0836 15.9712 19.7926C16.0291 19.5017 15.9994 19.2001 15.8858 18.926C15.7723 18.6519 15.58 18.4176 15.3334 18.2528C15.0867 18.088 14.7967 18 14.5 18Z" stroke="var(--stroke-0, #079DF0)" stroke-width="2" stroke-linecap="round" stroke-linejoin="round"/>
<path d="M7.5 7H2.5C1.67157 7 1 7.67157 1 8.5C1 9.32843 1.67157 10 2.5 10H7.5C8.32843 10 9 9.32843 9 8.5C9 7.67157 8.32843 7 7.5 7Z" stroke="var(--stroke-0, #079DF0)" stroke-width="2" stroke-linecap="round" stroke-linejoin="round"/>
<path d="M7.5 4H9V2.5C9 2.20333 8.91203 1.91332 8.74721 1.66665C8.58238 1.41997 8.34812 1.22771 8.07403 1.11418C7.79994 1.00065 7.49834 0.970945 7.20737 1.02882C6.91639 1.0867 6.64912 1.22956 6.43934 1.43934C6.22956 1.64912 6.0867 1.91639 6.02882 2.20737C5.97095 2.49834 6.00065 2.79994 6.11418 3.07403C6.22771 3.34812 6.41997 3.58238 6.66665 3.74721C6.91332 3.91203 7.20333 4 7.5 4Z" stroke="var(--stroke-0, #079DF0)" stroke-width="2" stroke-linecap="round" stroke-linejoin="round"/>
</g>
</svg>
