<svg width="246" height="24" viewBox="0 0 246 24" fill="none" xmlns="http://www.w3.org/2000/svg">
<path d="M22.8555 17.5605H20.5107V24H0V15.2197H15.8223V16.9756H17.5811V15.2197H19.9248V14.6338H22.8555V17.5605ZM16.4082 18.1465V21.0732H19.3389V18.1465H16.4082ZM24.6133 6.43945H20.5107V6.43848H18.7529V7.60938H16.4082V10.5361H19.3389V8.19434H20.5107V13.4639H0V4.68262H14.6504V6.43848H16.4082V4.68262H20.5107V2.3418H24.6133V6.43945ZM24.0273 11.707H21.6826V9.36621H24.0273V11.707ZM28.7158 4.68262H26.3711V2.3418H28.7158V4.68262ZM20.5107 2.3418H18.167V0H20.5107V2.3418Z" fill="url(#paint0_linear_3789_3999)"/>
<path d="M242.671 12.4422V18.6234C242.671 19.0539 242.771 19.3691 242.971 19.569C243.186 19.7535 243.54 19.8457 244.033 19.8457H245.533V22.5673H243.502C240.778 22.5673 239.417 21.245 239.417 18.6003V12.4422H237.893V9.78989H239.417V6.63013H242.671V9.78989H245.533V12.4422H242.671Z" fill="#5472AD"/>
<path d="M236.55 15.9018C236.55 16.3631 236.52 16.7782 236.458 17.1473H227.111C227.188 18.0698 227.511 18.7925 228.08 19.3153C228.649 19.8381 229.349 20.0995 230.18 20.0995C231.38 20.0995 232.234 19.5844 232.742 18.5542H236.227C235.858 19.7842 235.15 20.7991 234.104 21.5986C233.058 22.3828 231.773 22.7749 230.25 22.7749C229.019 22.7749 227.911 22.5058 226.926 21.9676C225.957 21.4141 225.195 20.6376 224.641 19.6382C224.103 18.6387 223.833 17.4855 223.833 16.1786C223.833 14.8563 224.103 13.6954 224.641 12.6959C225.18 11.6965 225.934 10.9277 226.903 10.3895C227.872 9.85139 228.988 9.58231 230.25 9.58231C231.465 9.58231 232.55 9.8437 233.504 10.3665C234.473 10.8893 235.219 11.635 235.743 12.6037C236.281 13.557 236.55 14.6564 236.55 15.9018ZM233.204 14.9793C233.188 14.149 232.888 13.4878 232.304 12.9958C231.719 12.4884 231.003 12.2347 230.157 12.2347C229.357 12.2347 228.68 12.4807 228.126 12.9727C227.588 13.4494 227.257 14.1182 227.134 14.9793H233.204Z" fill="#5472AD"/>
<path d="M221.471 22.5673H218.24L210.924 11.5197V22.5673H207.693V6.44562H210.924L218.24 17.5163V6.44562H221.471V22.5673Z" fill="#5472AD"/>
<path d="M203.128 22.7287C202.543 22.7287 202.059 22.5519 201.674 22.1983C201.305 21.8292 201.12 21.3757 201.12 20.8375C201.12 20.2993 201.305 19.8534 201.674 19.4998C202.059 19.1308 202.543 18.9463 203.128 18.9463C203.697 18.9463 204.167 19.1308 204.536 19.4998C204.905 19.8534 205.09 20.2993 205.09 20.8375C205.09 21.3757 204.905 21.8292 204.536 22.1983C204.167 22.5519 203.697 22.7287 203.128 22.7287Z" fill="#28B2FE"/>
<path d="M194.014 22.7749C192.967 22.7749 192.029 22.5904 191.198 22.2213C190.367 21.8369 189.705 21.3218 189.213 20.676C188.736 20.0303 188.474 19.3153 188.428 18.5311H191.682C191.744 19.0231 191.983 19.4306 192.398 19.7535C192.829 20.0764 193.36 20.2378 193.99 20.2378C194.606 20.2378 195.083 20.1148 195.421 19.8688C195.775 19.6228 195.952 19.3076 195.952 18.9232C195.952 18.508 195.737 18.2005 195.306 18.0006C194.891 17.7854 194.221 17.5547 193.298 17.3087C192.344 17.0781 191.559 16.8398 190.944 16.5937C190.344 16.3477 189.821 15.971 189.374 15.4636C188.944 14.9562 188.728 14.272 188.728 13.4109C188.728 12.7036 188.928 12.0578 189.328 11.4735C189.744 10.8893 190.328 10.428 191.082 10.0897C191.852 9.75144 192.752 9.58231 193.783 9.58231C195.306 9.58231 196.522 9.96671 197.429 10.7355C198.337 11.4889 198.837 12.5114 198.93 13.803H195.837C195.791 13.2956 195.575 12.8958 195.191 12.6037C194.821 12.2962 194.321 12.1424 193.69 12.1424C193.106 12.1424 192.652 12.25 192.329 12.4653C192.021 12.6806 191.867 12.9804 191.867 13.3648C191.867 13.7953 192.083 14.1259 192.513 14.3565C192.944 14.5718 193.613 14.7948 194.521 15.0254C195.444 15.256 196.206 15.4944 196.806 15.7404C197.406 15.9864 197.922 16.3708 198.353 16.8936C198.799 17.401 199.03 18.0775 199.045 18.9232C199.045 19.6612 198.837 20.3224 198.422 20.9067C198.022 21.491 197.437 21.9523 196.668 22.2905C195.914 22.6134 195.029 22.7749 194.014 22.7749Z" fill="#28B2FE"/>
<path d="M172.648 16.1325C172.648 14.8409 172.902 13.6954 173.409 12.6959C173.932 11.6965 174.64 10.9277 175.533 10.3895C176.425 9.85139 177.418 9.58231 178.51 9.58231C179.341 9.58231 180.133 9.76682 180.887 10.1358C181.641 10.4895 182.241 10.9661 182.687 11.5658V5.5H185.965V22.5673H182.687V20.676C182.287 21.3065 181.726 21.8139 181.003 22.1983C180.279 22.5827 179.441 22.7749 178.487 22.7749C177.41 22.7749 176.425 22.4981 175.533 21.9446C174.64 21.391 173.932 20.6145 173.409 19.6151C172.902 18.6003 172.648 17.4394 172.648 16.1325ZM182.71 16.1786C182.71 15.3944 182.557 14.7256 182.249 14.172C181.941 13.6031 181.526 13.1726 181.003 12.8804C180.479 12.5729 179.918 12.4192 179.318 12.4192C178.718 12.4192 178.164 12.5652 177.656 12.8574C177.148 13.1495 176.733 13.5801 176.41 14.149C176.102 14.7025 175.948 15.3637 175.948 16.1325C175.948 16.9013 176.102 17.5778 176.41 18.1621C176.733 18.731 177.148 19.1692 177.656 19.4767C178.179 19.7842 178.733 19.938 179.318 19.938C179.918 19.938 180.479 19.7919 181.003 19.4998C181.526 19.1923 181.941 18.7617 182.249 18.2082C182.557 17.6393 182.71 16.9628 182.71 16.1786Z" fill="#28B2FE"/>
<path d="M167.379 11.7734C167.794 11.0968 168.333 10.5664 168.994 10.182C169.671 9.79757 170.441 9.60537 171.302 9.60537V12.9958H170.448C169.433 12.9958 168.663 13.2341 168.14 13.7108C167.633 14.1874 167.379 15.0177 167.379 16.2017V22.5673H164.147V9.78988H167.379V11.7734Z" fill="#28B2FE"/>
<path d="M147.675 16.1325C147.675 14.8409 147.929 13.6954 148.436 12.6959C148.959 11.6965 149.66 10.9277 150.537 10.3895C151.429 9.85139 152.421 9.58231 153.514 9.58231C154.468 9.58231 155.299 9.77451 156.006 10.1589C156.73 10.5433 157.307 11.0276 157.737 11.6119V9.78988H160.992V22.5673H157.737V20.6991C157.322 21.2988 156.745 21.7985 156.006 22.1983C155.283 22.5827 154.445 22.7749 153.491 22.7749C152.414 22.7749 151.429 22.4981 150.537 21.9446C149.66 21.391 148.959 20.6145 148.436 19.6151C147.929 18.6003 147.675 17.4394 147.675 16.1325ZM157.737 16.1786C157.737 15.3944 157.584 14.7256 157.276 14.172C156.968 13.6031 156.553 13.1726 156.03 12.8804C155.506 12.5729 154.945 12.4192 154.345 12.4192C153.745 12.4192 153.191 12.5652 152.683 12.8574C152.175 13.1495 151.76 13.5801 151.437 14.149C151.129 14.7025 150.975 15.3637 150.975 16.1325C150.975 16.9013 151.129 17.5778 151.437 18.1621C151.76 18.731 152.175 19.1692 152.683 19.4767C153.206 19.7842 153.76 19.938 154.345 19.938C154.945 19.938 155.506 19.7919 156.03 19.4998C156.553 19.1923 156.968 18.7617 157.276 18.2082C157.584 17.6393 157.737 16.9628 157.737 16.1786Z" fill="#28B2FE"/>
<path d="M146.757 9.78989L143.018 22.5673H139.533L137.202 13.6416L134.871 22.5673H131.363L127.601 9.78989H130.878L133.14 19.5229L135.587 9.78989H139.002L141.403 19.4998L143.665 9.78989H146.757Z" fill="#28B2FE"/>
<path d="M126.673 15.9018C126.673 16.3631 126.643 16.7782 126.581 17.1473H117.234C117.311 18.0698 117.634 18.7925 118.203 19.3153C118.773 19.8381 119.473 20.0995 120.303 20.0995C121.504 20.0995 122.358 19.5844 122.865 18.5542H126.35C125.981 19.7842 125.273 20.7991 124.227 21.5986C123.181 22.3828 121.896 22.7749 120.373 22.7749C119.142 22.7749 118.034 22.5058 117.049 21.9676C116.08 21.4141 115.318 20.6376 114.764 19.6382C114.226 18.6387 113.957 17.4855 113.957 16.1786C113.957 14.8563 114.226 13.6954 114.764 12.6959C115.303 11.6965 116.057 10.9277 117.026 10.3895C117.996 9.85139 119.111 9.58231 120.373 9.58231C121.588 9.58231 122.673 9.8437 123.627 10.3665C124.596 10.8893 125.343 11.635 125.866 12.6037C126.404 13.557 126.673 14.6564 126.673 15.9018ZM123.327 14.9793C123.312 14.149 123.012 13.4878 122.427 12.9958C121.842 12.4884 121.127 12.2347 120.28 12.2347C119.48 12.2347 118.803 12.4807 118.249 12.9727C117.711 13.4494 117.38 14.1182 117.257 14.9793H123.327Z" fill="#28B2FE"/>
<path d="M109.601 12.4422V18.6234C109.601 19.0539 109.701 19.3691 109.902 19.569C110.117 19.7535 110.471 19.8457 110.963 19.8457H112.463V22.5673H110.432C107.709 22.5673 106.347 21.245 106.347 18.6003V12.4422H104.824V9.78989H106.347V6.63013H109.601V9.78989H112.463V12.4422H109.601Z" fill="#28B2FE"/>
<path d="M97.3375 22.7287C96.2143 22.7287 95.1988 22.5365 94.291 22.1521C93.3986 21.7677 92.6908 21.2142 92.1677 20.4915C91.6445 19.7689 91.3752 18.9155 91.3599 17.9314H94.8218C94.868 18.5926 95.0988 19.1154 95.5142 19.4998C95.945 19.8842 96.5297 20.0764 97.2683 20.0764C98.0222 20.0764 98.6146 19.8996 99.0454 19.5459C99.4762 19.1769 99.6917 18.7002 99.6917 18.116C99.6917 17.6393 99.5455 17.2472 99.2531 16.9397C98.9608 16.6322 98.5915 16.3939 98.1453 16.2247C97.7145 16.0402 97.1144 15.8403 96.3451 15.6251C95.2988 15.3175 94.4449 15.0177 93.7832 14.7256C93.137 14.418 92.5754 13.9645 92.0984 13.3648C91.6368 12.7498 91.406 11.9348 91.406 10.92C91.406 9.96671 91.6445 9.13641 92.1215 8.42912C92.5985 7.72182 93.2678 7.18366 94.1294 6.81464C94.9911 6.43024 95.9758 6.23804 97.0836 6.23804C98.7454 6.23804 100.092 6.64551 101.123 7.46043C102.169 8.25998 102.746 9.38242 102.854 10.8278H99.2993C99.2685 10.2742 99.03 9.82064 98.5838 9.46699C98.153 9.09797 97.576 8.91346 96.8528 8.91346C96.222 8.91346 95.7142 9.0749 95.3296 9.3978C94.9603 9.72069 94.7757 10.1897 94.7757 10.8047C94.7757 11.2352 94.9141 11.5966 95.1911 11.8887C95.4835 12.1655 95.8373 12.3961 96.2528 12.5806C96.6836 12.7498 97.2837 12.9496 98.053 13.1803C99.0993 13.4878 99.9532 13.7953 100.615 14.1028C101.276 14.4104 101.846 14.8716 102.323 15.4867C102.8 16.1017 103.038 16.9089 103.038 17.9084C103.038 18.7694 102.815 19.569 102.369 20.307C101.923 21.0451 101.269 21.637 100.407 22.0829C99.5455 22.5135 98.5223 22.7287 97.3375 22.7287Z" fill="#28B2FE"/>
<path d="M75.3025 16.1325C75.3025 14.8409 75.5564 13.6954 76.0641 12.6959C76.5873 11.6965 77.2874 10.9277 78.1644 10.3895C79.0568 9.85139 80.0492 9.58231 81.1417 9.58231C82.0956 9.58231 82.9265 9.77451 83.6343 10.1589C84.3575 10.5433 84.9344 11.0276 85.3653 11.6119V9.78988H88.6195V22.5673H85.3653V20.6991C84.9498 21.2988 84.3728 21.7985 83.6343 22.1983C82.9111 22.5827 82.0726 22.7749 81.1186 22.7749C80.0415 22.7749 79.0568 22.4981 78.1644 21.9446C77.2874 21.391 76.5873 20.6145 76.0641 19.6151C75.5564 18.6003 75.3025 17.4394 75.3025 16.1325ZM85.3653 16.1786C85.3653 15.3944 85.2114 14.7256 84.9037 14.172C84.5959 13.6031 84.1805 13.1726 83.6574 12.8804C83.1342 12.5729 82.5726 12.4192 81.9725 12.4192C81.3725 12.4192 80.8186 12.5652 80.3108 12.8574C79.803 13.1495 79.3876 13.5801 79.0645 14.149C78.7568 14.7025 78.6029 15.3637 78.6029 16.1325C78.6029 16.9013 78.7568 17.5778 79.0645 18.1621C79.3876 18.731 79.803 19.1692 80.3108 19.4767C80.8339 19.7842 81.3879 19.938 81.9725 19.938C82.5726 19.938 83.1342 19.7919 83.6574 19.4998C84.1805 19.1923 84.5959 18.7617 84.9037 18.2082C85.2114 17.6393 85.3653 16.9628 85.3653 16.1786Z" fill="white"/>
<path d="M70.9474 12.4422V18.6234C70.9474 19.0539 71.0474 19.3691 71.2475 19.569C71.4629 19.7535 71.8168 19.8457 72.3091 19.8457H73.8093V22.5673H71.7783C69.0549 22.5673 67.6932 21.245 67.6932 18.6003V12.4422H66.1699V9.78989H67.6932V6.63013H70.9474V9.78989H73.8093V12.4422H70.9474Z" fill="white"/>
<path d="M50.7126 16.1325C50.7126 14.8409 50.9665 13.6954 51.4743 12.6959C51.9974 11.6965 52.6975 10.9277 53.5745 10.3895C54.467 9.85139 55.4594 9.58231 56.5518 9.58231C57.5058 9.58231 58.3367 9.77451 59.0444 10.1589C59.7676 10.5433 60.3446 11.0276 60.7754 11.6119V9.78988H64.0297V22.5673H60.7754V20.6991C60.36 21.2988 59.783 21.7985 59.0444 22.1983C58.3213 22.5827 57.4827 22.7749 56.5287 22.7749C55.4517 22.7749 54.467 22.4981 53.5745 21.9446C52.6975 21.391 51.9974 20.6145 51.4743 19.6151C50.9665 18.6003 50.7126 17.4394 50.7126 16.1325ZM60.7754 16.1786C60.7754 15.3944 60.6216 14.7256 60.3138 14.172C60.0061 13.6031 59.5907 13.1726 59.0675 12.8804C58.5444 12.5729 57.9828 12.4192 57.3827 12.4192C56.7826 12.4192 56.2287 12.5652 55.721 12.8574C55.2132 13.1495 54.7978 13.5801 54.4746 14.149C54.1669 14.7025 54.0131 15.3637 54.0131 16.1325C54.0131 16.9013 54.1669 17.5778 54.4746 18.1621C54.7978 18.731 55.2132 19.1692 55.721 19.4767C56.2441 19.7842 56.798 19.938 57.3827 19.938C57.9828 19.938 58.5444 19.7919 59.0675 19.4998C59.5907 19.1923 60.0061 18.7617 60.3138 18.2082C60.6216 17.6393 60.7754 16.9628 60.7754 16.1786Z" fill="white"/>
<path d="M40.6315 6.46868C42.324 6.46868 43.8088 6.79927 45.0859 7.46043C46.3783 8.1216 47.3708 9.06722 48.0631 10.2973C48.7709 11.512 49.1248 12.9266 49.1248 14.5411C49.1248 16.1555 48.7709 17.5701 48.0631 18.7848C47.3708 19.9841 46.3783 20.9144 45.0859 21.5755C43.8088 22.2367 42.324 22.5673 40.6315 22.5673H35V6.46868H40.6315ZM40.5161 19.8227C42.2086 19.8227 43.5164 19.3614 44.4396 18.4389C45.3628 17.5163 45.8244 16.217 45.8244 14.5411C45.8244 12.8651 45.3628 11.5581 44.4396 10.6202C43.5164 9.66688 42.2086 9.19022 40.5161 9.19022H38.2312V19.8227H40.5161Z" fill="white"/>
<defs>
<linearGradient id="paint0_linear_3789_3999" x1="14.3579" y1="0" x2="14.3579" y2="24" gradientUnits="userSpaceOnUse">
<stop stop-color="#6FE9FF"/>
<stop offset="0.5" stop-color="#28B2FE"/>
<stop offset="1" stop-color="#28B2FE"/>
</linearGradient>
</defs>
</svg>
