<svg preserveAspectRatio="none" width="100%" height="100%" overflow="visible" style="display: block;" viewBox="0 0 17 17" fill="none" xmlns="http://www.w3.org/2000/svg">
<g id="Vector">
<path d="M11.8333 1C11.3913 1 10.9674 1.17559 10.6548 1.48816C10.3423 1.80072 10.1667 2.22464 10.1667 2.66667V7.66667C10.1667 8.10869 10.3423 8.53262 10.6548 8.84518C10.9674 9.15774 11.3913 9.33333 11.8333 9.33333C12.0543 9.33333 12.2663 9.42113 12.4226 9.57741C12.5789 9.73369 12.6667 9.94565 12.6667 10.1667V11C12.6667 11.442 12.4911 11.866 12.1785 12.1785C11.866 12.4911 11.442 12.6667 11 12.6667C10.779 12.6667 10.567 12.7545 10.4107 12.9107C10.2545 13.067 10.1667 13.279 10.1667 13.5V15.1667C10.1667 15.3877 10.2545 15.5996 10.4107 15.7559C10.567 15.9122 10.779 16 11 16C12.3261 16 13.5979 15.4732 14.5355 14.5355C15.4732 13.5979 16 12.3261 16 11V2.66667C16 2.22464 15.8244 1.80072 15.5118 1.48816C15.1993 1.17559 14.7754 1 14.3333 1H11.8333Z" stroke="var(--stroke-0, #079DF0)" stroke-width="2" stroke-linecap="round" stroke-linejoin="round"/>
<path d="M2.66667 1C2.22464 1 1.80072 1.17559 1.48816 1.48816C1.17559 1.80072 1 2.22464 1 2.66667V7.66667C1 8.10869 1.17559 8.53262 1.48816 8.84518C1.80072 9.15774 2.22464 9.33333 2.66667 9.33333C2.88768 9.33333 3.09964 9.42113 3.25592 9.57741C3.4122 9.73369 3.5 9.94565 3.5 10.1667V11C3.5 11.442 3.32441 11.866 3.01184 12.1785C2.69928 12.4911 2.27536 12.6667 1.83333 12.6667C1.61232 12.6667 1.40036 12.7545 1.24408 12.9107C1.0878 13.067 1 13.279 1 13.5V15.1667C1 15.3877 1.0878 15.5996 1.24408 15.7559C1.40036 15.9122 1.61232 16 1.83333 16C3.15942 16 4.43119 15.4732 5.36887 14.5355C6.30655 13.5979 6.83333 12.3261 6.83333 11V2.66667C6.83333 2.22464 6.65774 1.80072 6.34518 1.48816C6.03262 1.17559 5.60869 1 5.16667 1H2.66667Z" stroke="var(--stroke-0, #079DF0)" stroke-width="2" stroke-linecap="round" stroke-linejoin="round"/>
</g>
</svg>
